<?xml version="1.0" encoding="UTF-8"?>
<svg xmlns="http://www.w3.org/2000/svg" xmlns:xlink="http://www.w3.org/1999/xlink" width="62px" height="100px" viewBox="0 0 62 100" version="1.1">
<g id="surface1">
<path style="stroke:none;fill-rule:nonzero;fill:#d0393e;fill-opacity:1;" d="M 2.746094 0.855469 C 1.648438 1.335938 0.746094 2.367188 0.4375 3.464844 C 0.132812 4.605469 0.132812 94.957031 0.460938 96.117188 C 0.570312 96.578125 0.988281 97.28125 1.339844 97.699219 C 2.699219 99.234375 0.835938 99.144531 31.175781 99.078125 C 57.652344 99.011719 58.53125 98.992188 59.367188 98.597656 C 59.871094 98.332031 60.464844 97.761719 60.835938 97.171875 L 61.472656 96.183594 L 61.472656 3.378906 L 60.835938 2.390625 C 60.464844 1.796875 59.871094 1.226562 59.367188 0.964844 C 58.53125 0.570312 57.675781 0.546875 31.066406 0.503906 C 4.808594 0.4375 3.578125 0.460938 2.746094 0.855469 Z M 43.425781 8.550781 C 44.722656 9.34375 44.898438 10.109375 44.851562 14.628906 C 44.832031 16.84375 44.851562 18.640625 44.898438 18.640625 C 44.964844 18.640625 45.203125 18.246094 45.445312 17.761719 C 45.6875 17.300781 46.082031 16.796875 46.300781 16.667969 C 47.464844 16.050781 49.902344 16.796875 50.804688 18.046875 C 51.441406 18.925781 51.441406 20.789062 50.804688 21.644531 C 49.816406 22.984375 47.554688 23.683594 46.347656 23.027344 C 46.0625 22.894531 45.644531 22.324219 45.402344 21.777344 C 45.160156 21.226562 44.875 20.878906 44.789062 20.964844 C 44.679688 21.074219 44.480469 23.53125 44.371094 26.425781 C 44.238281 29.320312 44.0625 32.0625 43.996094 32.5 C 43.820312 33.597656 44.371094 33.640625 44.765625 32.566406 C 45.445312 30.679688 48.453125 30.789062 49.945312 32.761719 C 51.175781 34.386719 50.605469 36.6875 48.738281 37.632812 C 46.828125 38.617188 45.117188 38.15625 44.566406 36.511719 C 44.4375 36.097656 44.238281 35.746094 44.152344 35.746094 C 43.929688 35.746094 43.46875 42.808594 43.46875 45.941406 L 43.46875 48.355469 L 43.976562 47.476562 C 44.613281 46.359375 45.292969 46.007812 46.542969 46.164062 C 50.144531 46.601562 51.042969 50.964844 47.859375 52.566406 C 46.105469 53.464844 44.613281 53.136719 43.976562 51.710938 C 43.777344 51.25 43.535156 50.878906 43.449219 50.878906 C 43.207031 50.878906 43.03125 53.046875 43.03125 56.292969 C 43.03125 59.34375 43.007812 59.539062 41.714844 64.957031 C 40.988281 68.003906 40.308594 70.570312 40.199219 70.679688 C 40.109375 70.765625 39.429688 70.832031 38.726562 70.789062 L 37.433594 70.722656 L 37.519531 66.25 C 37.5625 63.792969 37.675781 60.285156 37.738281 58.464844 L 37.871094 55.152344 L 39.101562 55.042969 C 40.507812 54.914062 41.164062 54.472656 41.648438 53.332031 C 42.042969 52.390625 41.671875 51.050781 40.769531 50.308594 C 40.023438 49.671875 38.375 49.582031 37.585938 50.132812 C 37.300781 50.328125 37.015625 50.4375 36.949219 50.351562 C 36.882812 50.285156 36.929688 48.96875 37.058594 47.433594 C 37.191406 45.898438 37.367188 43.683594 37.433594 42.542969 C 37.628906 39.628906 37.5625 39.738281 38.859375 39.867188 C 39.804688 39.957031 40.066406 39.890625 40.703125 39.386719 C 42.066406 38.355469 42.152344 36.578125 40.902344 35.261719 C 40.417969 34.757812 40.132812 34.648438 39.277344 34.648438 C 38.683594 34.648438 37.960938 34.757812 37.652344 34.914062 C 37.34375 35.042969 37.058594 35.109375 36.992188 35.066406 C 36.90625 34.957031 37.914062 25.527344 38.089844 25.042969 C 38.136719 24.914062 38.53125 24.78125 38.96875 24.78125 C 40.175781 24.78125 41.035156 24.234375 41.539062 23.113281 C 42.042969 21.929688 41.84375 21.03125 40.835938 20.066406 C 40.285156 19.539062 39.980469 19.429688 39.058594 19.429688 C 38.027344 19.429688 37.851562 19.515625 37.191406 20.242188 C 36.597656 20.878906 36.445312 21.226562 36.445312 21.929688 C 36.445312 22.433594 36.578125 23.113281 36.753906 23.441406 C 37.101562 24.101562 36.972656 25.921875 36.003906 34.101562 C 35.699219 36.753906 35.390625 39.496094 34.796875 45.066406 C 34.511719 47.828125 34.160156 50.941406 34.050781 51.972656 C 33.65625 55.328125 32.933594 61.953125 32.472656 66.449219 C 31.988281 70.878906 32.054688 70.722656 31.152344 70.789062 L 30.363281 70.855469 L 30.101562 69.144531 C 29.96875 68.203125 29.703125 66.097656 29.527344 64.472656 C 29.351562 62.851562 29.089844 60.765625 28.980469 59.867188 C 28.871094 58.96875 28.671875 57.390625 28.5625 56.359375 C 28.429688 55.328125 28.234375 53.664062 28.101562 52.632812 C 27.992188 51.601562 27.730469 49.472656 27.554688 47.917969 C 27.378906 46.335938 27.113281 44.277344 27.003906 43.3125 C 26.871094 42.347656 26.542969 39.472656 26.234375 36.953125 C 25.421875 30.109375 25.246094 28.550781 25.007812 26.929688 C 24.722656 24.867188 24.765625 24.078125 25.160156 23.265625 C 25.863281 21.863281 25.136719 20.109375 23.601562 19.539062 C 22.898438 19.253906 22.65625 19.253906 21.890625 19.539062 C 18.925781 20.570312 19.648438 24.78125 22.789062 24.78125 C 23.84375 24.78125 23.820312 24.738281 24.148438 27.742188 C 24.4375 30.527344 24.765625 33.179688 24.941406 34.363281 C 25.09375 35.371094 24.960938 35.484375 24.28125 34.976562 C 23.710938 34.539062 21.757812 34.5625 21.121094 35 C 20.023438 35.765625 19.714844 37.191406 20.328125 38.507812 C 20.8125 39.539062 21.757812 39.976562 23.074219 39.867188 L 24.105469 39.757812 L 24.238281 40.765625 C 24.304688 41.316406 24.457031 42.917969 24.566406 44.296875 C 24.699219 45.679688 24.851562 47.632812 24.941406 48.617188 C 25.09375 50.570312 24.960938 50.789062 24.0625 50.109375 C 23.820312 49.933594 23.164062 49.78125 22.589844 49.78125 C 21.714844 49.78125 21.429688 49.890625 20.878906 50.460938 C 20.503906 50.832031 20.132812 51.359375 20.066406 51.667969 C 19.847656 52.542969 20.199219 53.75 20.855469 54.429688 C 21.382812 54.957031 21.648438 55.042969 22.679688 55.042969 C 24.128906 55.042969 24.148438 55.085938 24.148438 57.523438 C 24.148438 58.507812 24.238281 60.351562 24.347656 61.621094 C 24.457031 62.894531 24.609375 65.484375 24.699219 67.367188 L 24.832031 70.832031 L 23.402344 70.832031 C 22.019531 70.832031 21.953125 70.8125 21.824219 70.242188 C 21.734375 69.890625 21.339844 68.289062 20.921875 66.667969 C 19.34375 60.527344 19.167969 59.40625 19.121094 55.042969 C 19.078125 52.828125 19.011719 50.921875 18.96875 50.832031 C 18.707031 50.394531 18.199219 50.746094 17.804688 51.621094 C 17.585938 52.148438 17.191406 52.699219 16.949219 52.828125 C 15.851562 53.398438 13.371094 52.761719 12.625 51.710938 C 11.613281 50.261719 11.769531 48.378906 12.996094 47.214844 C 14.820312 45.503906 17.210938 45.8125 17.980469 47.851562 C 18.113281 48.203125 18.375 48.464844 18.550781 48.464844 C 18.859375 48.464844 18.882812 48.003906 18.75 44.453125 C 18.464844 36.886719 18.375 35.878906 17.9375 35.789062 C 17.671875 35.722656 17.453125 35.941406 17.234375 36.492188 C 16.730469 37.675781 16.09375 38.15625 15.015625 38.15625 C 12.800781 38.15625 11.195312 36.667969 11.195312 34.605469 C 11.195312 33.046875 12.292969 31.820312 14.117188 31.316406 C 15.542969 30.941406 16.53125 31.425781 17.125 32.785156 C 17.628906 33.96875 18.222656 34.121094 18.222656 33.046875 C 18.222656 31.578125 17.761719 22.238281 17.652344 21.535156 C 17.496094 20.570312 16.925781 20.679688 16.421875 21.753906 C 15.675781 23.332031 14.359375 23.683594 12.449219 22.851562 C 11.132812 22.257812 10.539062 21.316406 10.539062 19.800781 C 10.539062 18.816406 10.648438 18.53125 11.242188 17.851562 C 12.097656 16.886719 13.042969 16.449219 14.335938 16.449219 C 15.367188 16.449219 15.917969 16.863281 16.488281 18.09375 C 16.664062 18.441406 16.949219 18.773438 17.148438 18.816406 C 17.476562 18.882812 17.496094 18.421875 17.476562 14.539062 C 17.453125 10.832031 17.496094 10.085938 17.828125 9.515625 C 18.59375 8.113281 18.441406 8.113281 31.175781 8.113281 C 42.351562 8.113281 42.722656 8.136719 43.425781 8.550781 Z M 27.332031 54.539062 C 28.367188 63.113281 29.199219 70.308594 29.199219 70.484375 C 29.199219 70.722656 29.003906 70.832031 28.542969 70.832031 C 28.191406 70.832031 27.882812 70.765625 27.882812 70.65625 C 27.859375 70.570312 27.246094 63.355469 26.476562 54.605469 C 25.707031 45.855469 25.136719 38.597656 25.226562 38.488281 C 25.402344 38.179688 25.246094 37.128906 27.332031 54.539062 Z M 35.566406 54.648438 C 34.953125 63.246094 34.402344 70.417969 34.359375 70.570312 C 34.292969 70.746094 34.007812 70.832031 33.65625 70.789062 C 33.195312 70.746094 33.042969 70.613281 33.0625 70.285156 C 33.238281 68.070312 36.554688 38.597656 36.621094 38.773438 C 36.664062 38.902344 36.179688 46.050781 35.566406 54.648438 Z M 26.082031 61.996094 C 26.476562 66.558594 26.785156 70.417969 26.785156 70.546875 C 26.785156 70.855469 25.90625 70.964844 25.90625 70.65625 C 25.90625 70.570312 25.707031 67.238281 25.46875 63.265625 C 24.984375 55.242188 24.941406 53.726562 25.203125 53.726562 C 25.292969 53.726562 25.6875 57.457031 26.082031 61.996094 Z M 36.621094 62.238281 C 36.464844 66.734375 36.292969 70.503906 36.203125 70.65625 C 36.117188 70.789062 35.894531 70.832031 35.699219 70.765625 C 35.433594 70.65625 35.367188 70.4375 35.457031 69.800781 C 35.523438 69.34375 35.765625 66.050781 36.003906 62.5 C 36.445312 55.921875 36.640625 53.859375 36.796875 53.992188 C 36.839844 54.035156 36.753906 57.742188 36.621094 62.238281 Z M 24.808594 75.503906 C 24.808594 76.996094 24.742188 80.308594 24.65625 82.851562 L 24.523438 87.5 L 22.394531 87.5 L 22.394531 72.808594 L 24.808594 72.808594 Z M 27.003906 80.152344 L 27.003906 87.5 L 25.554688 87.5 L 25.621094 85.570312 C 25.644531 84.515625 25.753906 81.226562 25.820312 78.222656 L 25.949219 72.808594 L 27.003906 72.808594 Z M 29.417969 80.152344 L 29.417969 87.5 L 27.882812 87.5 L 27.882812 72.808594 L 29.417969 72.808594 Z M 31.835938 80.152344 L 31.835938 87.5 L 30.515625 87.5 L 30.515625 72.808594 L 31.835938 72.808594 Z M 34.25 80.152344 L 34.25 87.5 L 32.933594 87.5 L 32.933594 72.808594 L 34.25 72.808594 Z M 36.3125 73.507812 C 36.378906 73.902344 36.488281 77.214844 36.554688 80.855469 L 36.6875 87.5 L 35.347656 87.5 L 35.347656 80.152344 C 35.347656 73.003906 35.367188 72.808594 35.785156 72.808594 C 36.09375 72.808594 36.226562 73.003906 36.3125 73.507812 Z M 39.738281 80.152344 L 39.738281 87.5 L 37.804688 87.5 L 37.675781 85.460938 C 37.609375 84.363281 37.5 81.050781 37.433594 78.113281 L 37.300781 72.808594 L 39.738281 72.808594 Z M 39.738281 80.152344 "/>
</g>
</svg>
